<svg xmlns="http://www.w3.org/2000/svg" xmlns:xlink="http://www.w3.org/1999/xlink" version="1.1" id="Layer_1" x="0px" y="0px" viewBox="0 0 191.5 165.7" enable-background="new 0 0 191.5 165.7" xml:space="preserve">
<g>
	<path fill-rule="evenodd" clip-rule="evenodd" fill="#000000" d="M125.4,21.3c23.5,0,42.5,19,42.5,42.5c0,23.5-19,42.5-42.5,42.5   c-11.3,0-21.6-4.4-29.2-11.6c8.2-7.8,13.3-18.7,13.3-30.9s-5.1-23.1-13.3-30.9C103.8,25.7,114.1,21.3,125.4,21.3z"/>
	<path fill-rule="evenodd" clip-rule="evenodd" fill="#000000" d="M97.9,125.8l-33.7,39.9l0-39.9l-0.9,0c-31.3,0-63.5-22-63.5-63.4   l0,0c0-35.3,33.4-62.1,62.8-62.1l62.7,0c39.6,0,65.9,21.1,65.9,62.1l0,0c0,39.5-28.2,63.4-65.9,63.4H97.9L97.9,125.8L97.9,125.8z    M179.4,62.5L179.4,62.5c0-34.5-27.7-51.8-53.1-51.8l-63.7,0c-21,0-51.5,18.5-51.5,51.8l0,0c0,34.4,23.2,53,56,53h1.1   c3.1,0,5.4,2.3,5.4,5.2v18.7L91.9,117c1-0.9,2.4-1.4,3.9-1.4l30.8,0C163.3,115.6,179.4,88.2,179.4,62.5z"/>
	<g>
		<g>
			<path fill-rule="evenodd" clip-rule="evenodd" fill="#000000" d="M79,66.5c-0.7-1.1-1.5-2-2.7-2.6c-0.8-0.4-1.9-0.9-3.3-1.2     c1.4-0.5,2.5-1,3.3-1.8c0.8-0.7,1.5-1.5,1.9-2.4c0.4-0.9,0.7-1.9,0.7-2.9c0-1.4-0.4-2.7-1.2-3.9c-0.8-1.2-2-2.1-3.6-2.7     c-0.9-0.4-2-0.6-3.3-0.8v-5.3h-4.4v5.1h-2.8v-5.1h-4.4v5.1H50v4.3h1.2c0.8,0,1.4,0.1,1.7,0.2c0.3,0.1,0.5,0.4,0.6,0.6     c0.1,0.3,0.2,0.8,0.2,1.8v17.4c0,0.9-0.1,1.5-0.2,1.8c-0.1,0.3-0.3,0.5-0.6,0.6c-0.3,0.1-0.8,0.2-1.7,0.2H50v4.3l9.3,0v5.1h4.4     v-5.1h2.7c0,0,0.1,0,0.1,0v5.1h4.4v-5.4c1.4-0.2,2.6-0.5,3.5-0.8c1.8-0.7,3.2-1.8,4.2-3.2c1-1.4,1.5-2.9,1.5-4.6     C80,68.9,79.7,67.6,79,66.5L79,66.5z M61.4,53h3.4c2,0,3.4,0.1,4.2,0.4c0.8,0.2,1.4,0.7,1.8,1.2c0.4,0.6,0.6,1.3,0.6,2.1     c0,0.8-0.2,1.5-0.6,2.1c-0.4,0.6-1.1,1.1-1.9,1.4c-0.9,0.3-2.2,0.4-4,0.4h-3.4V53L61.4,53z M71,72.2c-0.6,0.8-1.3,1.3-2.2,1.5     c-0.9,0.2-2,0.4-3.3,0.4h-2.3c-0.8,0-1.2,0-1.4-0.1c-0.2-0.1-0.3-0.2-0.4-0.4c-0.1-0.2-0.1-0.7-0.1-1.7v-6.7h4     c1.8,0,3.1,0.2,3.9,0.5c0.9,0.3,1.5,0.8,1.9,1.5c0.4,0.6,0.6,1.4,0.6,2.3C71.9,70.5,71.6,71.4,71,72.2z"/>
		</g>
	</g>
	<path fill-rule="evenodd" clip-rule="evenodd" fill="#000000" d="M63.6,21c23.5,0,42.5,19,42.5,42.5c0,23.5-19,42.5-42.5,42.5   S21.1,87,21.1,63.5C21.1,40,40.1,21,63.6,21L63.6,21z M63.6,29.3c-18.9,0-34.2,15.3-34.2,34.2s15.3,34.2,34.2,34.2   s34.2-15.3,34.2-34.2S82.5,29.3,63.6,29.3z"/>
</g>
</svg>