<svg xmlns="http://www.w3.org/2000/svg" xmlns:xlink="http://www.w3.org/1999/xlink" width="190px" height="66px" viewBox="0 0 190 66" version="1.1">
    <!-- Generator: sketchtool 46.2 (44496) - http://www.bohemiancoding.com/sketch -->
    <title>CBD2BD62-4596-4E0F-A55E-B1A6F6260070</title>
    <desc>Created with sketchtool.</desc>
    <defs>
        <polygon id="path-1" points="0 0.21016875 0 65.9997937 52.7865 65.9997937 52.7865 0.21016875"/>
    </defs>
    <g id="Symbols" stroke="none" stroke-width="1" fill="none" fill-rule="evenodd">
        <g id="Logo">
            <g id="Brand">
                <g id="Brandmark">
                    <mask id="mask-2" fill="white">
                        <use xlink:href="#path-1"/>
                    </mask>
                    <g id="Clip-2"/>
                    <path d="M47.9109643,21.1181732 L27.7161429,33.9457446 L27.714,59.5955839 C27.714,60.4005482 27.12525,61.0540661 26.394,61.0546554 C25.6622143,61.0546554 25.0691786,60.4005482 25.07025,59.5955839 L25.0691786,33.9457446 L4.87489286,21.1211196 C4.24167857,20.7180482 4.02471429,19.8270482 4.389,19.1293339 C4.75757143,18.4327982 5.56542857,18.1929589 6.19864286,18.5983875 L26.394,31.4206554 L46.5866786,18.5972089 C47.2193571,18.1929589 48.0293571,18.4327982 48.3941786,19.1293339 C48.7606071,19.8270482 48.5431071,20.7145125 47.9109643,21.1181732 L47.9109643,21.1181732 Z M52.7843571,18.4787625 C52.7865,17.3049054 52.0284643,15.8652804 51.1032857,15.2795304 L40.9970357,8.8592625 L27.3079286,17.5500482 L29.8134643,19.0780661 C30.1472143,19.2825482 30.0700714,19.4646375 29.6382857,19.4793696 L21.5656071,19.7981732 C21.1365,19.8176196 20.8006071,19.6101911 20.8188214,19.3467804 L21.1670357,14.3136911 C21.1873929,14.0479232 21.474,13.9925304 21.8098929,14.1999589 L24.31275,15.7279768 L38.064,6.99594107 L28.0729286,0.649923214 C27.1498929,0.0635839286 25.6375714,0.0635839286 24.7113214,0.649923214 L1.68042857,15.2754054 C0.756321429,15.8629232 -0.000107142857,17.3025482 -0.000107142857,18.4787625 L-0.000107142857,31.4194768 L13.6091786,40.0637089 L13.5582857,36.9145661 C13.5518571,36.4920482 13.734,36.4773161 13.9616786,36.8786196 L18.2500714,44.4079232 C18.4788214,44.8092268 18.4847143,45.2305661 18.2634643,45.3466554 L14.1309643,47.5311375 C13.9113214,47.6472268 13.7275714,47.3979589 13.719,46.9772089 L13.6691786,43.8286554 L-0.000107142857,35.1467089 L-0.000107142857,47.7309054 C-0.000107142857,48.9053518 0.756321429,50.3432089 1.68042857,50.9330839 L24.7113214,65.5591554 C25.6348929,66.1466732 27.14775,66.1466732 28.0729286,65.5591554 L38.1818571,59.1400661 L38.1818571,41.8586732 L35.72775,43.4809768 C35.4020357,43.6972446 35.2943571,43.5346018 35.4973929,43.1126732 L39.2816786,35.2633875 C39.4847143,34.8461732 39.8131071,34.6287268 40.0156071,34.7807625 L43.7988214,37.6252446 C44.0007857,37.7772804 43.8984643,38.0795839 43.5695357,38.2958518 L41.1165,39.9169768 L41.1165,57.2767446 L51.1048929,50.9330839 C52.0300714,50.3455661 52.7865,48.9053518 52.7865,47.7309054 L52.7843571,18.4787625 Z" id="Fill-1" fill="#00AEEF" mask="url(#mask-2)"/>
                </g>
                <g id="Text" transform="translate(63.000000, 12.000000)">
                    <path d="M14,19.69 C12.56,19.96 10.34,20.23 8.66,20.23 C3.92,20.23 3.17,17.47 3.17,11.68 C3.17,5.77 3.98,3.01 8.6,3.01 C10.22,3.01 12.65,3.31 14,3.55 L14.09,1.6 C12.77,1.33 10.49,0.94 8.36,0.94 C2.12,0.94 0.77,4.66 0.77,11.68 C0.77,18.52 2.15,22.3 8.36,22.3 C10.34,22.3 12.62,21.97 14.09,21.67 L14,19.69 Z M17.3872222,22 L19.6372222,22 L19.6372222,10.99 C19.6372222,10.99 22.2772222,9.52 25.0972222,8.95 L25.0972222,6.67 C22.2172222,7.24 19.6072222,9.04 19.6072222,9.04 L19.6072222,7 L17.3872222,7 L17.3872222,22 Z M33.2544444,6.7 C38.0244444,6.7 39.6744444,9.16 39.6744444,14.32 C39.6744444,19.78 38.3244444,22.3 33.2544444,22.3 C28.2144444,22.3 26.8344444,19.78 26.8344444,14.32 C26.8344444,9.16 28.5144444,6.7 33.2544444,6.7 Z M33.2544444,20.35 C36.8244444,20.35 37.3644444,18.58 37.3644444,14.32 C37.3644444,10.15 36.4644444,8.65 33.2544444,8.65 C30.0744444,8.65 29.1444444,10.15 29.1444444,14.32 C29.1444444,18.58 29.7144444,20.35 33.2544444,20.35 Z M41.9816667,7 L45.5516667,22 L49.3016667,22 L52.4816667,10.27 L55.6616667,22 L59.4116667,22 L62.9816667,7 L60.7316667,7 L57.7316667,20.05 L57.2216667,20.05 L53.6516667,7.3 L51.3116667,7.3 L47.7416667,20.05 L47.2616667,20.05 L44.2316667,7 L41.9816667,7 Z M77.4688889,0.46 L77.4688889,22 L75.2488889,22 L75.2488889,20.98 C75.2488889,20.98 72.9388889,22.3 70.6888889,22.3 C67.7488889,22.3 65.2888889,21.1 65.2888889,14.62 C65.2888889,9.34 66.9988889,6.7 71.5588889,6.7 C72.8488889,6.7 74.7988889,7 75.2488889,7.09 L75.2488889,0.46 L77.4688889,0.46 Z M70.9588889,20.29 C73.0888889,20.29 75.2488889,19.18 75.2488889,19.18 L75.2488889,9.01 C74.7688889,8.92 72.9088889,8.65 71.6788889,8.65 C68.5288889,8.65 67.5988889,10.72 67.5988889,14.62 C67.5988889,19.48 69.1888889,20.29 70.9588889,20.29 Z" id="Crowd" fill="#00395D"/>
                    <path d="M80.72,0.45 L84.74,21 L90.14,21 L93.65,4.53 L97.19,21 L102.56,21 L106.61,0.45 L103.1,0.45 L100.16,18.12 L99.5,18.12 L95.6,0.51 L91.7,0.51 L87.8,18.12 L87.17,18.12 L84.23,0.45 L80.72,0.45 Z M109.31,21 L112.58,21 L112.58,6 L109.31,6 L109.31,21 Z M109.31,3.45 L112.58,3.45 L112.58,0 L109.31,0 L109.31,3.45 Z M115.79,8.91 L123.02,8.91 L115.79,18.09 L115.79,21 L126.92,21 L126.92,18.09 L119.72,18.09 L126.92,8.91 L126.92,6 L115.79,6 L115.79,8.91 Z" id="Wiz" fill="#00AEEF"/>
                    <path d="M2.19,38 L3.268,38 L3.268,28.312 L2.19,28.312 L2.19,38 Z M7.502,38 L7.502,32.316 C7.502,32.316 8.468,31.798 9.476,31.798 C10.778,31.798 10.988,32.484 10.988,34.332 L10.988,38 L12.024,38 L12.024,34.304 C12.024,31.812 11.59,30.86 9.658,30.86 C8.622,30.86 7.488,31.49 7.488,31.49 L7.488,31 L6.452,31 L6.452,38 L7.502,38 Z M14.242,31 L16.216,38 L18.316,38 L20.29,31 L19.212,31 L17.518,37.09 L17,37.09 L15.362,31 L14.242,31 Z M25.098,37.216 C26.148,37.216 27.674,37.09 27.674,37.09 L27.702,37.916 C27.702,37.916 26.106,38.14 24.972,38.14 C22.886,38.14 22.2,36.922 22.2,34.542 C22.2,31.882 23.348,30.86 25.126,30.86 C26.988,30.86 27.94,31.84 27.94,34.136 L27.884,34.934 L23.264,34.934 C23.264,36.432 23.726,37.216 25.098,37.216 Z M23.25,34.094 L26.89,34.094 C26.89,32.358 26.358,31.742 25.126,31.742 C23.936,31.742 23.264,32.4 23.25,34.094 Z M35.254,31.126 C35.254,31.126 33.77,30.86 32.72,30.86 C31.446,30.86 30.2,31.364 30.2,32.904 C30.2,34.304 30.956,34.598 32.538,34.85 C34.064,35.088 34.428,35.27 34.428,35.998 C34.428,36.95 33.812,37.202 32.664,37.202 C31.95,37.202 30.354,36.964 30.354,36.964 L30.298,37.874 C30.298,37.874 31.866,38.14 32.762,38.14 C34.442,38.14 35.478,37.594 35.478,35.956 C35.478,34.598 34.82,34.248 33.07,33.954 C31.586,33.702 31.25,33.52 31.25,32.862 C31.25,32.036 31.908,31.798 32.776,31.798 C33.672,31.798 35.226,32.022 35.226,32.022 L35.254,31.126 Z M41.714,31.91 L41.714,31 L39.488,31 L39.488,28.858 L38.452,28.858 L38.452,31 L37.458,31 L37.458,31.91 L38.452,31.91 L38.452,35.592 C38.452,37.608 38.942,38.154 40.384,38.154 C40.874,38.154 41.812,38 41.812,38 L41.742,37.132 C41.742,37.132 40.888,37.216 40.496,37.216 C39.586,37.216 39.488,36.782 39.488,35.256 L39.488,31.91 L41.714,31.91 Z M44.002,38 L45.052,38 L45.052,31 L44.002,31 L44.002,38 Z M44.002,29.418 L45.052,29.418 L45.052,28.2 L44.002,28.2 L44.002,29.418 Z M49.118,38 L49.118,32.316 C49.118,32.316 50.084,31.798 51.092,31.798 C52.394,31.798 52.604,32.484 52.604,34.332 L52.604,38 L53.64,38 L53.64,34.304 C53.64,31.812 53.206,30.86 51.274,30.86 C50.238,30.86 49.104,31.49 49.104,31.49 L49.104,31 L48.068,31 L48.068,38 L49.118,38 Z M59.288,41.29 C57.076,41.29 56.278,40.8 56.278,39.176 C56.278,38.364 56.656,37.986 57.384,37.44 C57.132,37.272 56.992,36.908 56.992,36.474 C56.992,36.208 57.468,35.368 57.468,35.368 C56.88,35.102 56.362,34.542 56.362,33.254 C56.362,31.532 57.426,30.86 58.98,30.86 C59.68,30.86 60.436,31.042 60.436,31.042 L62.508,30.986 L62.508,31.882 L61.178,31.854 C61.444,32.12 61.64,32.512 61.64,33.254 C61.64,35.074 60.73,35.62 58.938,35.62 C58.798,35.62 58.406,35.592 58.252,35.564 C58.252,35.564 58,36.18 58,36.362 C58,36.922 58.112,37.006 59.694,37.006 C61.682,37.006 62.396,37.398 62.396,39.064 C62.396,40.646 61.262,41.29 59.288,41.29 Z M59.61,37.93 C59.12,37.93 58.098,37.86 58.098,37.86 C57.51,38.294 57.314,38.546 57.314,39.092 C57.314,40.058 57.72,40.408 59.302,40.408 C60.702,40.408 61.332,40.03 61.332,39.106 C61.332,38.042 60.884,37.93 59.61,37.93 Z M58.98,34.78 C60.156,34.78 60.59,34.36 60.59,33.254 C60.59,32.148 60.156,31.714 58.98,31.714 C57.888,31.714 57.412,32.148 57.412,33.254 C57.412,34.36 57.888,34.78 58.98,34.78 Z M68.946,38 L69.996,38 L69.996,27.948 L68.946,27.948 L68.946,38 Z M73.096,38 L74.146,38 L74.146,31 L73.096,31 L73.096,38 Z M73.096,29.418 L74.146,29.418 L74.146,28.2 L73.096,28.2 L73.096,29.418 Z M80.256,30.86 C82.16,30.86 82.804,31.868 82.804,34.388 C82.804,37.174 82.048,38.14 79.5,38.14 C78.66,38.14 77.162,37.986 77.162,37.986 L77.162,27.948 L78.198,27.948 L78.198,31.35 C78.198,31.35 79.262,30.86 80.256,30.86 Z M79.486,37.202 C81.404,37.202 81.74,36.348 81.74,34.388 C81.74,32.582 81.376,31.798 80.144,31.798 C79.178,31.798 78.198,32.204 78.198,32.204 L78.198,37.132 C78.198,37.132 79.108,37.202 79.486,37.202 Z M88.116,37.216 C89.166,37.216 90.692,37.09 90.692,37.09 L90.72,37.916 C90.72,37.916 89.124,38.14 87.99,38.14 C85.904,38.14 85.218,36.922 85.218,34.542 C85.218,31.882 86.366,30.86 88.144,30.86 C90.006,30.86 90.958,31.84 90.958,34.136 L90.902,34.934 L86.282,34.934 C86.282,36.432 86.744,37.216 88.116,37.216 Z M86.268,34.094 L89.908,34.094 C89.908,32.358 89.376,31.742 88.144,31.742 C86.954,31.742 86.282,32.4 86.268,34.094 Z M93.596,38 L94.646,38 L94.646,32.862 C94.646,32.862 95.878,32.176 97.194,31.91 L97.194,30.846 C95.85,31.112 94.632,31.952 94.632,31.952 L94.632,31 L93.596,31 L93.596,38 Z M104.382,33.114 L104.382,36.698 C104.41,37.104 104.746,37.258 105.194,37.314 L105.152,38.14 C104.41,38.14 103.906,38 103.486,37.58 C103.486,37.58 102.226,38.14 100.966,38.14 C99.692,38.14 98.992,37.412 98.992,35.998 C98.992,34.654 99.692,34.066 101.134,33.926 L103.332,33.716 L103.332,33.114 C103.332,32.134 102.912,31.784 102.072,31.784 C101.092,31.784 99.426,31.966 99.426,31.966 L99.384,31.168 C99.384,31.168 100.924,30.86 102.128,30.86 C103.71,30.86 104.382,31.588 104.382,33.114 Z M103.332,34.514 L101.26,34.71 C100.406,34.794 100.07,35.2 100.07,35.97 C100.07,36.782 100.42,37.258 101.134,37.258 C102.17,37.258 103.332,36.824 103.332,36.824 L103.332,34.514 Z M111.08,31.91 L111.08,31 L108.854,31 L108.854,28.858 L107.818,28.858 L107.818,31 L106.824,31 L106.824,31.91 L107.818,31.91 L107.818,35.592 C107.818,37.608 108.308,38.154 109.75,38.154 C110.24,38.154 111.178,38 111.178,38 L111.108,37.132 C111.108,37.132 110.254,37.216 109.862,37.216 C108.952,37.216 108.854,36.782 108.854,35.256 L108.854,31.91 L111.08,31.91 Z M115.958,37.216 C117.008,37.216 118.534,37.09 118.534,37.09 L118.562,37.916 C118.562,37.916 116.966,38.14 115.832,38.14 C113.746,38.14 113.06,36.922 113.06,34.542 C113.06,31.882 114.208,30.86 115.986,30.86 C117.848,30.86 118.8,31.84 118.8,34.136 L118.744,34.934 L114.124,34.934 C114.124,36.432 114.586,37.216 115.958,37.216 Z M114.11,34.094 L117.75,34.094 C117.75,32.358 117.218,31.742 115.986,31.742 C114.796,31.742 114.124,32.4 114.11,34.094 Z M126.814,27.948 L126.814,38 L125.778,38 L125.778,37.524 C125.778,37.524 124.7,38.14 123.65,38.14 C122.278,38.14 121.13,37.58 121.13,34.556 C121.13,32.092 121.928,30.86 124.056,30.86 C124.658,30.86 125.568,31 125.778,31.042 L125.778,27.948 L126.814,27.948 Z M123.776,37.202 C124.77,37.202 125.778,36.684 125.778,36.684 L125.778,31.938 C125.554,31.896 124.686,31.77 124.112,31.77 C122.642,31.77 122.208,32.736 122.208,34.556 C122.208,36.824 122.95,37.202 123.776,37.202 Z" id="Investing-liberated" fill="#082A48"/>
                </g>
            </g>
        </g>
    </g>
</svg>