<svg xmlns="http://www.w3.org/2000/svg" width="317.969" height="139.428">

 <g>
  <title>background</title>
  <rect fill="none" id="canvas_background" height="402" width="582" y="-1" x="-1"/>
 </g>
 <g>
  <title>Layer 1</title>
  <path fill="#ffffff" id="svg_1" d="m40.562,74.189l0,9.853l-10.207,10.207l-10.208,-10.208l0,-50.226l10.207,-10.208l10.207,10.208l0,8.278l9.025,-9.016l0,-2.994l-19.231,-19.235l-19.233,19.234l0,57.694l19.232,19.247l19.232,-19.247l0,-22.612l-9.024,9.025z"/>
  <path fill="#ffffff" id="svg_2" d="m30.355,111.762l0,2.972l19.232,19.238l19.232,-19.231l0,-57.706l-19.229,-19.228l-19.235,19.235l0,22.611l9.025,-9.025l0,-9.853l10.21,-10.209l10.204,10.164l0,50.276l-10.208,10.208l-10.207,-10.215l0,-8.262l-9.024,9.025z"/>
  <g id="svg_3">
   <polygon fill="#ffffff" id="svg_4" points="242.517,57.204 233.851,57.204 225.038,57.204 216.372,57.204 216.372,65.119 225.038,65.119 225.038,102.739    233.851,102.739 233.851,65.119 242.517,65.119  "/>
   <polygon fill="#ffffff" id="svg_5" points="108.366,79.343 115.363,72.346 115.363,57.204 106.55,57.204 106.55,71.328 101.674,76.217 99.859,76.217    99.859,57.204 91.046,57.204 91.046,102.739 99.859,102.739 99.859,83.929 101.674,83.929 108.366,90.623 108.366,102.739    117.179,102.739 117.179,88.152  "/>
   <path fill="#ffffff" id="svg_6" d="m205.117,57.204l-9.456,0l-0.011,0l-8.802,0l0,45.535l8.813,0l0,-18.81l9.456,0l6.364,-6.342l0,-14.041l-6.364,-6.342zm-9.456,19.034l0,-11.119l7.007,0l0,11.119c0,0 -7.007,0 -7.007,0z"/>
   <polygon fill="#ffffff" id="svg_7" points="171.506,57.204 171.506,74.696 169.964,76.238 166.521,76.238 164.978,74.695 164.978,57.204 156.165,57.204    156.165,77.17 163.836,84.832 163.836,102.739 172.649,102.739 172.649,84.833 180.319,77.162 180.319,57.204  "/>
   <path fill="#ffffff" id="svg_8" d="m263.126,55.664l-1.693,0l-0.694,0l-1.693,0l-11.118,11.118l0,26.225l11.118,11.118l1.693,0l0.694,0l1.693,0l11.118,-11.118l0,-26.225l-11.118,-11.118zm-2.042,39.192l-4.343,-4.343l0,-21.271l-0.003,-0.001l4.347,-4.347l4.348,4.347l0,21.266l-4.349,4.349z"/>
   <polygon fill="#ffffff" id="svg_9" points="299.46,57.204 299.46,82.076 288.852,57.204 280.038,57.204 280.038,102.739 288.852,102.739 288.852,77.867    299.46,102.739 308.273,102.739 308.273,57.204  "/>
   <path fill="#ffffff" id="svg_10" d="m149.789,88.42l0.005,-0.002l-4.84,-4.84l0,-2.515l3.032,-3.027l0,-14.485l-6.346,-6.347l-9.467,0l-8.813,0l0,45.535l8.813,0l0,-18.81l1.809,-0.043l7.001,7.001l0,11.851l8.813,0l0,-14.32l-0.007,0.002zm-10.616,-23.296l0,11.114l-7,0l0,-11.119l7,0l0,0.005z"/>
  </g>
  <g id="svg_11">
   <g id="svg_12">
    <path fill="#ffffff" id="svg_13" d="m129.745,115.026l-0.037,1.372c-0.604,-0.11 -1.591,-0.293 -2.488,-0.293c-1.665,0 -2.342,0.622 -2.342,2.214l0,5.232c0,1.573 0.659,2.195 2.342,2.195c0.896,0 1.884,-0.183 2.488,-0.293l0.037,1.409c-0.805,0.128 -1.701,0.293 -2.524,0.293c-2.891,0 -3.897,-1.244 -3.897,-3.696l0,-5.031c0,-2.488 1.043,-3.695 3.897,-3.695c0.823,0 1.719,0.165 2.524,0.293z"/>
    <path fill="#ffffff" id="svg_14" d="m155.957,126.936l-1.683,0l-0.787,-2.781l-4.409,0l-0.787,2.781l-1.592,0l3.659,-11.983l1.921,0l3.678,11.983zm-6.495,-4.172l3.641,0l-1.811,-6.385l-1.83,6.385z"/>
    <path fill="#ffffff" id="svg_15" d="m180.687,118.081l0,0.439c0,2.232 -1.299,3.586 -4.116,3.586c-0.531,0 -1.061,-0.037 -1.756,-0.146l0,4.977l-1.555,0l0,-12.094c0.933,-0.055 1.866,-0.091 3.165,-0.109c2.945,-0.038 4.262,1.243 4.262,3.347zm-5.873,-1.976l0,4.519c0.823,0.11 1.244,0.146 1.683,0.146c1.756,0 2.635,-0.769 2.635,-2.323l0,-0.311c0,-1.354 -0.805,-2.086 -2.745,-2.086c-0.804,0 -1.17,0.019 -1.573,0.055z"/>
    <path fill="#ffffff" id="svg_16" d="m199.855,126.936l-1.555,0l0,-11.983l1.555,0l0,11.983z"/>
    <path fill="#ffffff" id="svg_17" d="m225.976,116.361l-3.476,0l0,10.575l-1.555,0l0,-10.575l-3.477,0l0,-1.408l8.508,0l0,1.408z"/>
    <path fill="#ffffff" id="svg_18" d="m250.615,126.936l-1.683,0l-0.787,-2.781l-4.409,0l-0.787,2.781l-1.591,0l3.658,-11.983l1.922,0l3.677,11.983zm-6.495,-4.172l3.642,0l-1.812,-6.385l-1.83,6.385z"/>
    <path fill="#ffffff" id="svg_19" d="m269.472,125.564l4.756,0l0,1.372l-6.311,0l0,-11.983l1.556,0l0,10.611l-0.001,0z"/>
   </g>
  </g>
 </g>
</svg>