<svg xmlns="http://www.w3.org/2000/svg" xmlns:xlink="http://www.w3.org/1999/xlink" version="1.1" id="Слой_1" x="0px" y="0px" width="317.969px" height="139.428px" viewBox="0 0 317.969 139.428" enable-background="new 0 0 317.969 139.428" xml:space="preserve">
<path d="M40.562,74.189v9.853L30.355,94.249L20.147,84.041V33.815l10.207-10.208l10.207,10.208v8.278l9.025-9.016v-2.994  L30.355,10.848L11.122,30.082v57.694l19.232,19.247l19.232-19.247V65.164L40.562,74.189z"/>
<path d="M30.355,111.762v2.972l19.232,19.238l19.232-19.231V57.035L49.59,37.807L30.355,57.042v22.611l9.025-9.025v-9.853  l10.21-10.209L59.794,60.73v50.276l-10.208,10.208l-10.207-10.215v-8.262L30.355,111.762z"/>
<g>
	<polygon points="242.517,57.204 233.851,57.204 225.038,57.204 216.372,57.204 216.372,65.119 225.038,65.119 225.038,102.739    233.851,102.739 233.851,65.119 242.517,65.119  "/>
	<polygon points="108.366,79.343 115.363,72.346 115.363,57.204 106.55,57.204 106.55,71.328 101.674,76.217 99.859,76.217    99.859,57.204 91.046,57.204 91.046,102.739 99.859,102.739 99.859,83.929 101.674,83.929 108.366,90.623 108.366,102.739    117.179,102.739 117.179,88.152  "/>
	<path d="M205.117,57.204h-9.456h-0.011h-8.802v45.535h8.813v-18.81h9.456l6.364-6.342V63.546L205.117,57.204z M195.661,76.238   V65.119h7.007v11.119C202.668,76.238,195.661,76.238,195.661,76.238z"/>
	<polygon points="171.506,57.204 171.506,74.696 169.964,76.238 166.521,76.238 164.978,74.695 164.978,57.204 156.165,57.204    156.165,77.17 163.836,84.832 163.836,102.739 172.649,102.739 172.649,84.833 180.319,77.162 180.319,57.204  "/>
	<path d="M263.126,55.664h-1.693h-0.694h-1.693l-11.118,11.118v26.225l11.118,11.118h1.693h0.694h1.693l11.118-11.118V66.782   L263.126,55.664z M261.084,94.856l-4.343-4.343V69.242l-0.003-0.001l4.347-4.347l4.348,4.347v21.266L261.084,94.856z"/>
	<polygon points="299.46,57.204 299.46,82.076 288.852,57.204 280.038,57.204 280.038,102.739 288.852,102.739 288.852,77.867    299.46,102.739 308.273,102.739 308.273,57.204  "/>
	<path d="M149.789,88.42l0.005-0.002l-4.84-4.84v-2.515l3.032-3.027V63.551l-6.346-6.347h-9.467h-8.813v45.535h8.813v-18.81   l1.809-0.043l7.001,7.001v11.851h8.813v-14.32L149.789,88.42z M139.173,65.124v11.114h-7V65.119h7V65.124z"/>
</g>
<g>
	<g>
		<path d="M129.745,115.026l-0.037,1.372c-0.604-0.11-1.591-0.293-2.488-0.293c-1.665,0-2.342,0.622-2.342,2.214v5.232    c0,1.573,0.659,2.195,2.342,2.195c0.896,0,1.884-0.183,2.488-0.293l0.037,1.409c-0.805,0.128-1.701,0.293-2.524,0.293    c-2.891,0-3.897-1.244-3.897-3.696v-5.031c0-2.488,1.043-3.695,3.897-3.695C128.044,114.733,128.94,114.898,129.745,115.026z"/>
		<path d="M155.957,126.936h-1.683l-0.787-2.781h-4.409l-0.787,2.781h-1.592l3.659-11.983h1.921L155.957,126.936z M149.462,122.764    h3.641l-1.811-6.385L149.462,122.764z"/>
		<path d="M180.687,118.081v0.439c0,2.232-1.299,3.586-4.116,3.586c-0.531,0-1.061-0.037-1.756-0.146v4.977h-1.555v-12.094    c0.933-0.055,1.866-0.091,3.165-0.109C179.37,114.696,180.687,115.977,180.687,118.081z M174.814,116.105v4.519    c0.823,0.11,1.244,0.146,1.683,0.146c1.756,0,2.635-0.769,2.635-2.323v-0.311c0-1.354-0.805-2.086-2.745-2.086    C175.583,116.05,175.217,116.069,174.814,116.105z"/>
		<path d="M199.855,126.936H198.3v-11.983h1.555V126.936z"/>
		<path d="M225.976,116.361H222.5v10.575h-1.555v-10.575h-3.477v-1.408h8.508V116.361z"/>
		<path d="M250.615,126.936h-1.683l-0.787-2.781h-4.409l-0.787,2.781h-1.591l3.658-11.983h1.922L250.615,126.936z M244.12,122.764    h3.642l-1.812-6.385L244.12,122.764z"/>
		<path d="M269.472,125.564h4.756v1.372h-6.311v-11.983h1.556v10.611H269.472z"/>
	</g>
</g>
</svg>