<svg xmlns="http://www.w3.org/2000/svg" id="Слой_1" data-name="Слой 1" viewBox="0 0 1024 1024"><defs><style>.cls-1,.cls-2,.cls-4{fill:#fff;}.cls-2,.cls-4{stroke:#6ca9e0;stroke-miterlimit:10;}.cls-3{fill:#0080ff;}.cls-4{stroke-linecap:round;stroke-width:120px;}</style></defs><title>logo-inverted</title><circle class="cls-1" cx="512" cy="512" r="512"/><g id="Слой_2_копия_" data-name="Слой 2 (копия)"><line class="cls-2" x1="356.87" y1="390.5" x2="502.01" y2="756.12"/><path class="cls-3" d="M502,870.39a114.28,114.28,0,0,1-106.21-72.12L250.69,432.66A114.24,114.24,0,0,1,463,348.35L608.19,714A114.31,114.31,0,0,1,502,870.39Z"/><path class="cls-4" d="M641.85,153.61"/><line class="cls-2" x1="651.27" y1="390.5" x2="692.13" y2="493.45"/><path class="cls-3" d="M692.17,607.71A114.28,114.28,0,0,1,586,535.6L545.09,432.66a114.24,114.24,0,1,1,212.35-84.3L798.31,451.3A114.31,114.31,0,0,1,692.17,607.71Z"/></g></svg>