<svg xmlns="http://www.w3.org/2000/svg" xmlns:xlink="http://www.w3.org/1999/xlink" version="1.1" id="Layer_1" x="0px" y="0px" width="414.394px" height="92.453px" viewBox="0 0 414.394 92.453" enable-background="new 0 0 414.394 92.453" xml:space="preserve">
<g>
	<path fill="#56BFCD" d="M52.441,62.826c-6.386-1.72-12.807-2.026-18.944-1.127c-0.061,0.094-0.127,0.185-0.189,0.278   c-0.288,0.437-0.582,0.871-0.883,1.303c-0.132,0.189-0.263,0.378-0.398,0.566c-0.392,0.547-0.793,1.09-1.207,1.627   c-0.035,0.045-0.067,0.091-0.102,0.136c-0.448,0.577-0.912,1.146-1.385,1.711c-0.14,0.167-0.284,0.333-0.426,0.499   c-0.359,0.418-0.724,0.833-1.097,1.243c-0.149,0.164-0.297,0.329-0.448,0.492c-0.51,0.549-1.028,1.093-1.563,1.627   c-0.953,0.95-1.931,1.859-2.932,2.728c-3.002,2.604-6.211,4.844-9.566,6.736c0.001,0.001,0.002,0.002,0.003,0.003   c2.584,2.475,5.451,4.655,8.547,6.49c0.044,0.026,0.087,0.053,0.131,0.079c0.351,0.207,0.707,0.406,1.064,0.603   c0.126,0.07,0.251,0.141,0.377,0.209c0.317,0.172,0.638,0.338,0.96,0.503c0.172,0.088,0.344,0.176,0.517,0.262   c0.295,0.147,0.593,0.289,0.892,0.43c0.207,0.097,0.414,0.193,0.622,0.287c0.278,0.126,0.558,0.249,0.838,0.369   c0.236,0.101,0.473,0.2,0.712,0.297c0.263,0.108,0.527,0.215,0.793,0.318c0.264,0.102,0.529,0.2,0.795,0.298   c0.248,0.091,0.496,0.183,0.745,0.27c0.295,0.103,0.593,0.199,0.89,0.296c0.228,0.074,0.455,0.15,0.684,0.221   c0.345,0.106,0.693,0.205,1.042,0.303c0.188,0.053,0.374,0.11,0.562,0.161c0.54,0.145,1.084,0.283,1.631,0.409   c0.422-0.736,0.872-1.451,1.349-2.143c0.587-0.851,1.218-1.663,1.883-2.444c0.416-0.488,0.841-0.967,1.285-1.426   c0.002-0.002,0.003-0.003,0.005-0.005c0.575-0.595,1.172-1.165,1.791-1.709c0.801-0.705,1.641-1.362,2.509-1.978   c1.148-0.815,2.347-1.555,3.595-2.205c1.096-0.571,2.227-1.076,3.386-1.511c0.387-0.145,0.776-0.283,1.169-0.412   c1.571-0.519,3.19-0.912,4.841-1.172c0.826-0.13,1.66-0.226,2.5-0.288c1.681-0.123,3.386-0.108,5.103,0.053   c0.858,0.081,1.719,0.199,2.581,0.354c0.862,0.155,1.724,0.348,2.586,0.581c0.685,0.185,1.358,0.392,2.018,0.62   c1.981,0.686,3.849,1.563,5.601,2.593c0.304-0.279,0.586-0.578,0.882-0.865C72.071,72.147,63.2,65.724,52.441,62.826z"/>
	<path fill="#56BFCD" d="M0.29,58.347c10.308-1.116,20.325-5.589,28.226-13.471c4.682-4.67,8.158-10.077,10.447-15.841   c-0.054-0.105-0.102-0.214-0.155-0.32c-0.235-0.469-0.465-0.943-0.688-1.421c-0.096-0.206-0.193-0.411-0.287-0.618   c-0.283-0.624-0.557-1.253-0.819-1.89c-0.017-0.042-0.036-0.083-0.053-0.124c-0.276-0.677-0.537-1.364-0.789-2.056   c-0.074-0.205-0.146-0.411-0.218-0.617c-0.183-0.52-0.359-1.043-0.528-1.571c-0.067-0.21-0.136-0.419-0.201-0.631   c-0.22-0.716-0.432-1.436-0.627-2.166c-0.879-3.296-1.446-6.6-1.731-9.886c-0.114-1.314-0.182-2.626-0.207-3.932   c-0.012-0.651-0.014-1.3-0.005-1.949c0,0-0.001,0-0.001,0c-3.532,1.02-6.89,2.446-10.025,4.22   c-0.083,0.047-0.168,0.093-0.251,0.141c-0.346,0.199-0.687,0.404-1.028,0.611c-0.132,0.08-0.264,0.16-0.395,0.241   c-0.306,0.191-0.609,0.386-0.91,0.584c-0.162,0.106-0.324,0.212-0.485,0.321c-0.276,0.185-0.549,0.374-0.82,0.565   c-0.183,0.129-0.364,0.258-0.545,0.389c-0.25,0.181-0.499,0.365-0.745,0.551c-0.198,0.15-0.394,0.302-0.59,0.455   c-0.227,0.177-0.453,0.355-0.676,0.536c-0.212,0.172-0.421,0.348-0.629,0.523c-0.204,0.171-0.409,0.342-0.61,0.517   c-0.227,0.198-0.451,0.401-0.674,0.603c-0.178,0.161-0.357,0.319-0.532,0.483c-0.256,0.239-0.507,0.484-0.758,0.729   c-0.138,0.135-0.279,0.266-0.415,0.403c-0.385,0.385-0.765,0.776-1.137,1.175c6.931,11.754,5.345,27.126-4.807,37.252l0,0h0   c-0.036,0.035-0.074,0.067-0.109,0.102c-0.88,0.869-1.803,1.665-2.758,2.403c-0.87,0.673-1.77,1.288-2.691,1.857   C0.711,56.734,0.36,56.959,0,57.163C0.089,57.561,0.191,57.954,0.29,58.347z"/>
	<path fill="#56BFCD" d="M58.531,1.801c-4.241,9.519-5.4,20.488-2.51,31.327c1.704,6.392,4.651,12.108,8.5,16.973   c0.123,0.007,0.246,0.02,0.369,0.027c0.518,0.031,1.036,0.069,1.555,0.114c0.23,0.02,0.46,0.039,0.69,0.062   c0.685,0.068,1.37,0.145,2.056,0.237c0.039,0.005,0.079,0.009,0.118,0.014c0.723,0.099,1.446,0.217,2.17,0.344   c0.217,0.038,0.435,0.08,0.652,0.121c0.538,0.101,1.075,0.21,1.613,0.326c0.218,0.047,0.435,0.093,0.653,0.143   c0.728,0.167,1.457,0.343,2.185,0.539c4.578,1.233,8.87,2.994,12.85,5.183c0.567,0.312,1.127,0.632,1.681,0.961l0-0.001   c0.442-1.774,0.782-3.588,1.017-5.434c0.009-0.072,0.019-0.143,0.028-0.215c0.106-0.862,0.186-1.733,0.244-2.609   c0.009-0.141,0.016-0.283,0.024-0.425c0.05-0.88,0.083-1.764,0.083-2.657v0c0-2.937-0.274-5.81-0.793-8.596   c-0.104-0.557-0.218-1.111-0.341-1.661c-0.247-1.1-0.532-2.186-0.854-3.256c-2.984,0.027-5.915-0.385-8.711-1.191   c-1.198-0.345-2.372-0.763-3.515-1.249c-0.762-0.324-1.51-0.679-2.242-1.063c-7.323-3.841-13.078-10.627-15.386-19.285   c-0.188-0.703-0.348-1.407-0.483-2.111c-0.404-2.111-0.576-4.22-0.547-6.302c-0.584-0.182-1.173-0.352-1.767-0.511   c-0.076-0.02-0.154-0.038-0.23-0.058c-0.533-0.14-1.068-0.273-1.608-0.394c-0.034-0.008-0.068-0.014-0.102-0.022   c-0.15-0.033-0.303-0.06-0.453-0.092C56.508,1.262,57.526,1.515,58.531,1.801z"/>
	<path fill="#009DCC" d="M71.723,57.402c-0.62-0.211-1.235-0.436-1.847-0.668c-0.149-0.056-0.296-0.116-0.444-0.174   c-0.507-0.197-1.012-0.401-1.513-0.613c-0.204-0.086-0.407-0.172-0.61-0.261c-0.496-0.216-0.988-0.439-1.478-0.669   c-0.151-0.071-0.303-0.138-0.453-0.21c-0.607-0.291-1.208-0.594-1.804-0.906c-0.202-0.106-0.401-0.216-0.601-0.324   c-0.414-0.223-0.825-0.45-1.233-0.683c-0.229-0.131-0.458-0.262-0.686-0.396c-0.419-0.247-0.834-0.5-1.247-0.757   c-0.179-0.111-0.36-0.219-0.537-0.333c-0.551-0.352-1.095-0.714-1.633-1.084c-0.075-0.052-0.153-0.101-0.228-0.153   c-0.13,0.009-0.261,0.016-0.391,0.026l-0.001,0c-0.676,0.053-1.351,0.114-2.022,0.191c-0.151,0.017-0.3,0.04-0.451,0.058   c-0.551,0.067-1.1,0.141-1.647,0.224c-0.193,0.029-0.385,0.062-0.578,0.093c-0.071,0.012-0.143,0.023-0.214,0.035   c-0.446,0.074-0.89,0.153-1.333,0.238c-0.156,0.03-0.312,0.06-0.468,0.09c-0.104,0.021-0.208,0.039-0.311,0.06   c-0.175,0.036-0.348,0.078-0.523,0.116c-0.449,0.096-0.899,0.19-1.345,0.297c-0.001,0-0.002,0-0.003,0.001   c-0.208,0.05-0.414,0.105-0.621,0.158c-0.001,0-0.001,0-0.002,0c-0.485,0.122-0.969,0.249-1.451,0.383   c-0.122,0.034-0.243,0.071-0.365,0.106c-0.151,0.044-0.303,0.087-0.454,0.132c-0.41,0.121-0.817,0.247-1.223,0.377   c-0.264,0.084-0.529,0.167-0.792,0.256c-0.485,0.163-0.966,0.335-1.446,0.51c-0.109,0.04-0.219,0.075-0.327,0.116   c-0.222,0.083-0.442,0.172-0.663,0.257c-0.039,0.015-0.077,0.031-0.116,0.046c-0.404,0.157-0.807,0.315-1.206,0.481   c-0.265,0.11-0.529,0.224-0.792,0.338c-0.389,0.168-0.776,0.342-1.161,0.519l-0.001,0.001c-0.169,0.078-0.339,0.155-0.507,0.234   c-0.042,0.086-0.088,0.17-0.13,0.256c-0.217,0.441-0.44,0.88-0.669,1.316c-0.115,0.219-0.23,0.438-0.348,0.657   c-0.285,0.526-0.578,1.048-0.881,1.567c-0.059,0.101-0.114,0.203-0.174,0.304c-0.359,0.607-0.733,1.208-1.116,1.805   c-0.061,0.094-0.119,0.189-0.18,0.283c6.137-0.899,12.559-0.593,18.944,1.127c10.759,2.898,19.631,9.32,25.75,17.67   c0.393-0.381,0.794-0.755,1.173-1.15c0.116-0.12,0.226-0.244,0.341-0.365c0.616-0.654,1.22-1.32,1.8-2.007   c0.005-0.006,0.011-0.013,0.016-0.019c0.332-0.395,0.657-0.795,0.976-1.201c0.024-0.03,0.047-0.06,0.071-0.091   c0.26-0.332,0.513-0.67,0.765-1.009c0.041-0.055,0.083-0.108,0.123-0.163c0.039-0.053,0.078-0.107,0.117-0.16   c0.274-0.377,0.542-0.757,0.805-1.143c0.052-0.077,0.104-0.154,0.156-0.231c0.002-0.002,0.003-0.005,0.005-0.008   c0.245-0.364,0.486-0.731,0.721-1.102c0.064-0.102,0.128-0.205,0.192-0.307c0.221-0.355,0.439-0.713,0.65-1.074   c0.074-0.126,0.146-0.253,0.218-0.38c0.197-0.344,0.392-0.689,0.58-1.038c0.081-0.151,0.16-0.303,0.24-0.455   c0.081-0.154,0.16-0.311,0.24-0.466c0.092-0.177,0.185-0.354,0.274-0.533c0.088-0.178,0.173-0.358,0.259-0.537   c0.028-0.059,0.055-0.118,0.083-0.177c0.122-0.258,0.246-0.515,0.364-0.775c0.022-0.048,0.042-0.097,0.063-0.145   c0.07-0.159,0.14-0.319,0.209-0.479c0.13-0.299,0.261-0.597,0.384-0.899c0.097-0.237,0.188-0.476,0.281-0.715   c0.11-0.28,0.221-0.559,0.325-0.842c0.076-0.207,0.146-0.417,0.22-0.626c0.023-0.068,0.048-0.135,0.071-0.203   c0.088-0.252,0.179-0.503,0.262-0.757c0.025-0.075,0.046-0.151,0.07-0.227c0.081-0.252,0.158-0.506,0.235-0.76   c-6.472,0.038-12.805-1.03-18.769-3.062C71.716,57.395,71.719,57.398,71.723,57.402z"/>
	<path fill="#0096B1" d="M76.58,52.029c-0.728-0.196-1.456-0.372-2.185-0.539c-0.218-0.05-0.436-0.096-0.653-0.143   c-0.538-0.117-1.075-0.225-1.613-0.326c-0.217-0.041-0.435-0.083-0.652-0.121c-0.724-0.127-1.447-0.245-2.17-0.344   c-0.04-0.005-0.079-0.009-0.118-0.014c-0.686-0.093-1.371-0.17-2.056-0.237c-0.23-0.023-0.46-0.042-0.69-0.062   c-0.519-0.045-1.037-0.083-1.555-0.114c-0.121-0.007-0.243-0.015-0.364-0.021c2.137,2.7,4.548,5.142,7.187,7.284   c5.964,2.032,12.297,3.1,18.769,3.062c0.002-0.006,0.004-0.011,0.005-0.017c0.037-0.122,0.076-0.242,0.112-0.364   c0.062-0.209,0.12-0.42,0.179-0.63c0.094-0.336,0.185-0.673,0.272-1.012c0.022-0.086,0.042-0.172,0.063-0.258   c-0.554-0.329-1.115-0.649-1.681-0.961C85.45,55.023,81.157,53.262,76.58,52.029z"/>
	<path fill="#009DCC" d="M23.578,64.285c-0.003,0.001-0.007,0.003-0.011,0.004c0.501-0.438,1.011-0.865,1.527-1.285   c0.143-0.116,0.288-0.229,0.431-0.344c0.406-0.325,0.816-0.644,1.23-0.957c0.183-0.138,0.365-0.276,0.549-0.412   c0.438-0.323,0.881-0.64,1.328-0.95c0.13-0.09,0.258-0.184,0.389-0.274c0.551-0.376,1.108-0.74,1.671-1.097   c0.208-0.132,0.418-0.258,0.627-0.387c0.385-0.237,0.773-0.47,1.163-0.698c0.233-0.136,0.467-0.272,0.702-0.405   c0.425-0.24,0.854-0.473,1.285-0.703c0.181-0.097,0.361-0.197,0.543-0.292c0.575-0.298,1.156-0.584,1.741-0.863   c0.08-0.038,0.157-0.08,0.237-0.118c0.061-0.125,0.124-0.249,0.184-0.374c0-0.001,0.001-0.001,0.001-0.001   c0.194-0.407,0.376-0.817,0.56-1.226c0.096-0.213,0.199-0.424,0.292-0.638c0.068-0.157,0.131-0.316,0.197-0.474   c0.208-0.492,0.411-0.986,0.605-1.483c0.058-0.148,0.113-0.297,0.17-0.446c0.038-0.1,0.076-0.199,0.114-0.299   c0.162-0.434,0.319-0.868,0.47-1.305c0.037-0.106,0.074-0.212,0.11-0.318c0.046-0.132,0.093-0.264,0.137-0.396   c0.21-0.63,0.41-1.263,0.598-1.899c0.029-0.099,0.056-0.199,0.083-0.298c0.03-0.104,0.058-0.209,0.088-0.314   c0.132-0.468,0.26-0.937,0.38-1.407c0.006-0.024,0.011-0.047,0.017-0.071c0.063-0.247,0.124-0.495,0.183-0.743   c0.103-0.431,0.201-0.863,0.294-1.296c0.045-0.209,0.092-0.418,0.134-0.627c0.009-0.045,0.02-0.09,0.029-0.135   c0.129-0.64,0.249-1.282,0.356-1.926c0.038-0.228,0.069-0.457,0.104-0.686c0.071-0.459,0.138-0.918,0.197-1.378   c0.036-0.279,0.069-0.557,0.102-0.837c0.051-0.444,0.095-0.889,0.136-1.333c0-0.001,0-0.002,0-0.002   c0.013-0.145,0.027-0.289,0.039-0.433c-0.059-0.087-0.114-0.178-0.172-0.265c-0.273-0.408-0.541-0.821-0.804-1.237   c-0.131-0.207-0.262-0.413-0.39-0.622c-0.321-0.523-0.635-1.052-0.94-1.587c-0.05-0.087-0.102-0.172-0.152-0.26   c-0.347-0.616-0.68-1.241-1.006-1.872c-0.048-0.094-0.099-0.185-0.146-0.279c-2.29,5.764-5.765,11.171-10.447,15.841   C20.615,52.758,10.598,57.232,0.29,58.347c0.041,0.163,0.077,0.328,0.12,0.49c0.017,0.064,0.036,0.127,0.054,0.191   c0.235,0.874,0.499,1.736,0.783,2.589c0.08,0.24,0.157,0.481,0.241,0.72c0.116,0.33,0.239,0.656,0.361,0.983   c0.133,0.353,0.27,0.703,0.411,1.052c0.102,0.253,0.204,0.506,0.31,0.756c0.259,0.607,0.525,1.211,0.808,1.805   c0.001,0.003,0.003,0.006,0.004,0.008c0.005,0.01,0.009,0.02,0.014,0.029c0.173,0.363,0.356,0.719,0.538,1.076   c0.065,0.127,0.125,0.257,0.191,0.383c0.017,0.033,0.034,0.066,0.051,0.099c0.239,0.457,0.487,0.908,0.74,1.356   c0.022,0.039,0.043,0.077,0.066,0.116c0.008,0.015,0.017,0.03,0.025,0.045c0.243,0.424,0.493,0.843,0.748,1.259   c0.044,0.072,0.088,0.145,0.132,0.216c0.244,0.393,0.496,0.781,0.751,1.166c0.06,0.09,0.118,0.18,0.178,0.27   c0.057,0.085,0.118,0.167,0.176,0.252c0.189,0.276,0.38,0.552,0.574,0.824c0.075,0.105,0.149,0.212,0.225,0.317   c0.078,0.107,0.159,0.211,0.238,0.317c0.168,0.227,0.337,0.453,0.51,0.677c0.091,0.118,0.179,0.238,0.271,0.355   c0.245,0.313,0.497,0.619,0.75,0.926c0.104,0.126,0.205,0.254,0.311,0.379c0.25,0.297,0.507,0.587,0.764,0.877   c0.113,0.127,0.223,0.257,0.337,0.384c0.203,0.224,0.412,0.441,0.619,0.661C14.789,73.335,18.861,68.413,23.578,64.285z"/>
	<path fill="#0096B1" d="M23.578,64.285c-4.717,4.128-8.789,9.05-11.984,14.638c0.064,0.068,0.127,0.136,0.191,0.204   c0.031,0.032,0.061,0.065,0.091,0.097c0.176,0.184,0.355,0.366,0.535,0.547c0.215,0.217,0.432,0.433,0.651,0.646   c0.079,0.076,0.159,0.151,0.238,0.227c3.354-1.892,6.564-4.131,9.566-6.736c1.001-0.869,1.979-1.778,2.932-2.728   c0.535-0.534,1.053-1.078,1.563-1.627c0.151-0.163,0.299-0.328,0.448-0.492c0.373-0.41,0.738-0.825,1.097-1.243   c0.142-0.166,0.286-0.331,0.426-0.499c0.473-0.564,0.937-1.133,1.385-1.711c0.035-0.045,0.068-0.091,0.102-0.136   c0.414-0.536,0.814-1.08,1.207-1.627c0.135-0.188,0.266-0.377,0.398-0.566c0.301-0.431,0.595-0.865,0.883-1.303   c0.061-0.092,0.122-0.185,0.182-0.277C30.079,62.201,26.756,63.069,23.578,64.285z"/>
	<path fill="#009693" d="M36.756,55.621c-0.585,0.279-1.166,0.565-1.741,0.863c-0.182,0.095-0.361,0.195-0.543,0.292   c-0.431,0.229-0.86,0.463-1.285,0.703c-0.235,0.133-0.469,0.269-0.702,0.405c-0.39,0.228-0.778,0.461-1.163,0.698   c-0.209,0.129-0.42,0.256-0.627,0.387c-0.563,0.357-1.121,0.721-1.671,1.097c-0.131,0.089-0.259,0.183-0.389,0.274   c-0.447,0.311-0.89,0.627-1.328,0.95c-0.184,0.136-0.367,0.274-0.549,0.412c-0.414,0.313-0.824,0.633-1.23,0.957   c-0.144,0.115-0.288,0.228-0.431,0.344c-0.513,0.418-1.018,0.846-1.516,1.282c3.178-1.216,6.501-2.084,9.912-2.585   c0.062-0.095,0.126-0.189,0.187-0.284c0.383-0.597,0.757-1.198,1.116-1.805c0.06-0.101,0.115-0.203,0.174-0.304   c0.302-0.519,0.596-1.041,0.881-1.567c0.118-0.218,0.233-0.437,0.348-0.657c0.229-0.436,0.452-0.875,0.669-1.316   c0.042-0.084,0.083-0.168,0.124-0.253C36.911,55.55,36.833,55.585,36.756,55.621z"/>
	<path fill="#009DCC" d="M41.683,19.16c0.001-0.006,0.002-0.013,0.003-0.019c0.124,0.628,0.235,1.258,0.338,1.889   c0.021,0.129,0.038,0.259,0.059,0.388c0.088,0.564,0.168,1.128,0.239,1.694c0.027,0.216,0.053,0.433,0.078,0.649   c0.06,0.528,0.113,1.056,0.159,1.585c0.016,0.18,0.035,0.359,0.049,0.539c0.052,0.674,0.092,1.349,0.121,2.025   c0.009,0.212,0.012,0.423,0.019,0.635c0.015,0.484,0.025,0.968,0.028,1.453c0.001,0.262,0.002,0.524,0,0.786   c-0.004,0.478-0.015,0.956-0.03,1.434c-0.007,0.222-0.011,0.443-0.02,0.665c-0.029,0.655-0.069,1.309-0.121,1.962   c-0.008,0.104-0.015,0.208-0.024,0.313c0.074,0.11,0.147,0.221,0.222,0.33c0.388,0.565,0.782,1.123,1.188,1.671   c0.058,0.077,0.117,0.154,0.176,0.23c0.035,0.047,0.072,0.094,0.108,0.141c0.33,0.438,0.665,0.871,1.006,1.298   c0.077,0.097,0.156,0.192,0.234,0.287c0.089,0.109,0.177,0.219,0.267,0.327c0.292,0.356,0.589,0.707,0.89,1.055   c0.167,0.193,0.333,0.388,0.502,0.579c0.44,0.497,0.887,0.987,1.343,1.466c0.064,0.067,0.13,0.133,0.195,0.199   c0.074,0.077,0.15,0.153,0.225,0.229c0.346,0.356,0.694,0.708,1.049,1.055c0.201,0.196,0.403,0.389,0.607,0.583   c0.317,0.301,0.638,0.598,0.962,0.892c0.143,0.13,0.285,0.259,0.429,0.388c0.055,0.049,0.109,0.099,0.164,0.148   c0.489,0.432,0.984,0.856,1.487,1.271c0.169,0.139,0.342,0.272,0.512,0.409c0.37,0.298,0.743,0.593,1.12,0.881   c0.223,0.171,0.448,0.339,0.674,0.506c0.352,0.261,0.708,0.518,1.066,0.771c0.137,0.097,0.274,0.194,0.412,0.29   c0.112-0.008,0.226-0.01,0.339-0.018c0.482-0.031,0.965-0.057,1.449-0.076c0.249-0.01,0.497-0.02,0.746-0.027   c0.619-0.017,1.239-0.024,1.86-0.02c0.093,0.001,0.185-0.002,0.278-0.001c0.704,0.007,1.411,0.032,2.118,0.066   c0.105,0.005,0.21,0.007,0.316,0.013c-3.849-4.866-6.796-10.582-8.5-16.973c-2.889-10.839-1.73-21.808,2.51-31.327   c-1.005-0.286-2.023-0.54-3.053-0.761c-0.083-0.018-0.167-0.034-0.251-0.051c-0.433-0.09-0.867-0.176-1.304-0.255   c-0.546-0.097-1.094-0.188-1.646-0.266c-0.026-0.004-0.051-0.007-0.077-0.01c-0.014-0.002-0.029-0.004-0.043-0.006   c-0.185-0.026-0.372-0.046-0.558-0.069c-0.298-0.038-0.595-0.079-0.896-0.111c-0.102-0.011-0.205-0.02-0.308-0.03   c-0.034-0.003-0.068-0.006-0.102-0.01c-0.404-0.04-0.809-0.078-1.216-0.108c-0.261-0.019-0.525-0.031-0.787-0.045   c-0.084-0.005-0.168-0.009-0.252-0.014c-0.212-0.012-0.423-0.026-0.636-0.034C46.828,0.012,46.253,0,45.675,0h0   c-0.847,0-1.686,0.03-2.522,0.075c-0.136,0.007-0.273,0.014-0.409,0.022c-0.833,0.053-1.661,0.126-2.482,0.222   c-0.064,0.007-0.128,0.016-0.193,0.024c-1.758,0.214-3.486,0.523-5.18,0.924C38.192,6.884,40.453,12.94,41.683,19.16z"/>
	<path fill="#0096B1" d="M41.683,19.16c-1.23-6.22-3.49-12.276-6.793-17.892h0l0,0c-0.086,0.02-0.173,0.04-0.259,0.061c0,0,0,0,0,0   c-0.344,0.084-0.685,0.172-1.026,0.263c-0.073,0.02-0.146,0.04-0.22,0.059c-0.146,0.04-0.293,0.077-0.438,0.118   c-0.097,0.027-0.193,0.058-0.29,0.086c-0.009,0.648-0.007,1.298,0.005,1.949c0.025,1.306,0.094,2.618,0.207,3.932   c0.285,3.286,0.852,6.59,1.731,9.886c0.195,0.73,0.407,1.451,0.627,2.167c0.065,0.211,0.133,0.421,0.201,0.631   c0.169,0.528,0.345,1.052,0.528,1.571c0.072,0.206,0.143,0.412,0.218,0.617c0.252,0.692,0.513,1.379,0.789,2.056   c0.017,0.042,0.036,0.083,0.053,0.124c0.262,0.637,0.536,1.266,0.819,1.89c0.094,0.207,0.191,0.412,0.287,0.618   c0.223,0.478,0.453,0.951,0.688,1.421c0.052,0.104,0.104,0.209,0.157,0.313C40.237,25.828,41.147,22.518,41.683,19.16z"/>
	<path fill="#009693" d="M57.638,50.325c0.539,0.37,1.083,0.733,1.633,1.084c0.177,0.113,0.358,0.221,0.537,0.333   c0.413,0.257,0.828,0.511,1.247,0.757c0.227,0.134,0.456,0.265,0.686,0.396c0.408,0.233,0.819,0.46,1.233,0.683   c0.2,0.108,0.399,0.218,0.601,0.324c0.596,0.312,1.197,0.615,1.804,0.906c0.15,0.072,0.302,0.139,0.453,0.21   c0.49,0.23,0.982,0.453,1.478,0.669c0.203,0.088,0.406,0.175,0.61,0.261c0.501,0.211,1.006,0.416,1.513,0.613   c0.148,0.058,0.295,0.118,0.444,0.174c0.607,0.23,1.22,0.448,1.835,0.658c-2.639-2.142-5.05-4.584-7.187-7.284   c-0.107-0.006-0.214-0.014-0.321-0.018c-0.707-0.034-1.414-0.058-2.118-0.066c-0.093-0.001-0.185,0.002-0.278,0.001   c-0.622-0.004-1.241,0.004-1.86,0.02c-0.249,0.007-0.498,0.017-0.746,0.027c-0.484,0.019-0.967,0.045-1.449,0.076   c-0.111,0.007-0.221,0.014-0.332,0.022C57.493,50.221,57.564,50.274,57.638,50.325z"/>
	<path fill="#009693" d="M39.11,29.315c0.326,0.631,0.659,1.257,1.006,1.872c0.049,0.087,0.102,0.172,0.152,0.26   c0.305,0.535,0.619,1.064,0.94,1.587c0.128,0.209,0.259,0.415,0.39,0.622c0.263,0.416,0.532,0.829,0.804,1.237   c0.057,0.086,0.115,0.172,0.173,0.258c0.008-0.102,0.02-0.204,0.028-0.306c0.051-0.653,0.092-1.308,0.121-1.962   c0.01-0.221,0.013-0.443,0.02-0.665c0.016-0.478,0.027-0.956,0.03-1.434c0.002-0.262,0.002-0.524,0-0.786   c-0.003-0.484-0.013-0.969-0.028-1.453c-0.007-0.212-0.01-0.423-0.019-0.635c-0.028-0.676-0.068-1.351-0.121-2.025   c-0.014-0.18-0.033-0.359-0.049-0.539c-0.046-0.529-0.098-1.057-0.159-1.585c-0.025-0.217-0.051-0.433-0.078-0.649   c-0.072-0.565-0.151-1.13-0.239-1.694c-0.02-0.129-0.038-0.259-0.059-0.388c-0.102-0.625-0.219-1.248-0.342-1.87   c-0.536,3.358-1.445,6.667-2.716,9.869C39.015,29.124,39.061,29.22,39.11,29.315z"/>
</g>
<g>
	<path fill="#484748" d="M195.179,32.458c-13.59,0-24.606,11.016-24.606,24.606c0,13.59,11.016,24.606,24.606,24.606   c13.589,0,24.606-11.017,24.606-24.606C219.785,43.475,208.768,32.458,195.179,32.458z M195.179,72.347   c-8.44,0-15.282-6.842-15.282-15.283c0-8.44,6.842-15.282,15.282-15.282c8.44,0,15.283,6.842,15.283,15.282   C210.461,65.505,203.619,72.347,195.179,72.347z"/>
	<rect x="106.357" y="33.562" fill="#484748" width="10.378" height="46.871"/>
	<path fill="#484748" d="M279.105,44.577h-14.683v35.815c4.501,0,10.182,0,14.683,0c12.536,0,17.806-8.801,17.806-18.164   C296.91,52.865,291.436,44.577,279.105,44.577z M279.105,73.024h-6.803V51.792h6.803c7.47,0,9.925,5.166,9.925,10.334   C289.03,67.294,286.883,73.024,279.105,73.024z"/>
	<path fill="#484748" d="M322.562,58.391l-10.436-13.763c-3.02,0-6.141,0-9.159,0v35.815h7.982V55.425l10.692,14.019h1.433   l11.05-13.917v24.917h7.982V44.629h-9.055L322.562,58.391z"/>
	<rect x="366.035" y="44.577" fill="#484748" width="7.93" height="35.815"/>
	<polygon fill="#484748" points="406.36,44.577 406.36,56.6 406.872,67.856 388.811,44.577 381.956,44.577 381.956,80.392    390.04,80.392 390.04,69.237 389.731,57.471 407.537,80.392 414.394,80.392 414.394,44.577  "/>
	<path fill="#484748" d="M235.849,44.576l-16.064,35.815h8.595l2.61-6.141h18.368l2.61,6.141h8.646l-16.066-35.815H235.849z    M240.84,67.192V67.15h-6.814l6.173-14.489l6.141,14.531H240.84z"/>
	<path fill="#484748" d="M149.118,41.782c4.362,0,8.288,1.837,11.072,4.768l6.6-6.599c-4.473-4.618-10.735-7.493-17.672-7.493   c-13.589,0-24.606,11.016-24.606,24.606c0,13.59,11.017,24.606,24.606,24.606c6.937,0,13.199-2.875,17.672-7.493l-6.6-6.6   c-2.785,2.932-6.71,4.769-11.072,4.769c-8.44,0-15.283-6.842-15.283-15.283C133.836,48.624,140.678,41.782,149.118,41.782z"/>
	<circle fill="#484748" cx="354.048" cy="76.458" r="3.934"/>
</g>
</svg>